# xmcd CD database file
#
# Track frame offsets:
#	150
#	16512
#	35647
#	53722
#	74455
#	89225
#	111597
#	123442
#	140895
#	153997
#	171217
#	200532
#	212687
#	229935
#	254447
#
# Disc length: 3603 seconds
#
# Revision: 1
# Processed by: cddbd v1.5.2PL0 Copyright (c) Steve Scherf et al.
# Submitted via: jetAudio 7
#
DISCID=e20e110f
DTITLE=Hound Dog Taylor And The Houserockers - Deluxe Edition
DYEAR=1999
DGENRE=Blues
TTITLE0=Hound Dog Taylor And The Houserockers  -  Wild About You, Baby
TTITLE1=Hound Dog Taylor And The Houserockers  - The Sun Is Shining (L
TTITLE2=Hound Dog Taylor And The Houserockers  - Roll Your Moneymaker
TTITLE3=Hound Dog Taylor And The Houserockers  - Give Me Back My Wig (
TTITLE4=Hound Dog Taylor And The Houserockers  - Walkin The Ceiling
TTITLE5=Hound Dog Taylor And The Houserockers  - See Me In The Evening
TTITLE6=Hound Dog Taylor And The Houserockers  -  Phillips Goes Banana
TTITLE7=Hound Dog Taylor And The Houserockers  - It Hurts Me Too
TTITLE8=Hound Dog Taylor And The Houserockers  - What'd I Say 
TTITLE9=Hound Dog Taylor And The Houserockers  - Rock Me (Live)
TTITLE10=Hound Dog Taylor And The Houserockers  - Phillips' Theme (Liv
TTITLE11=Hound Dog Taylor And The Houserockers  - Take Five
TTITLE12=Hound Dog Taylor And The Houserockers  - She's Gone
TTITLE13=Hound Dog Taylor And The Houserockers  - Ain't It Lonesome  (
TTITLE14=Hound Dog Taylor And The Houserockers  - Ain't Got Nobody
EXTD=
EXTT0=
EXTT1=
EXTT2=
EXTT3=
EXTT4=
EXTT5=
EXTT6=
EXTT7=
EXTT8=
EXTT9=
EXTT10=
EXTT11=
EXTT12=
EXTT13=
EXTT14=
PLAYORDER=
